<?xml version="1.0" encoding="UTF-8"?>
<!DOCTYPE svg PUBLIC "-//W3C//DTD SVG 1.1//EN" "http://www.w3.org/Graphics/SVG/1.1/DTD/svg11.dtd">
<!-- Creator: CorelDRAW -->
<svg xmlns="http://www.w3.org/2000/svg" xml:space="preserve" width="850px" height="850px" version="1.1" style="shape-rendering:geometricPrecision; text-rendering:geometricPrecision; image-rendering:optimizeQuality; fill-rule:evenodd; clip-rule:evenodd"
viewBox="0 0 850 850"
 xmlns:xlink="http://www.w3.org/1999/xlink">
 <defs>
  <style type="text/css">
   <![CDATA[
    .fil0 {fill:black}
    .fil1 {fill:#F8DC25}
   ]]>
  </style>
 </defs>
 <g id="Layer_x0020_1">
  <metadata id="CorelCorpID_0Corel-Layer"/>
  <circle class="fil0" cx="425" cy="425" r="425"/>
  <g id="_677854448">
   <g>
    <g>
     <path class="fil1" d="M385 507l-208 0c-5,0 -8,-3 -8,-8l0 -28c0,-40 33,-73 73,-73 4,0 8,4 8,8 0,4 -4,7 -8,7 -32,0 -58,26 -58,59l0 21 201 0c4,0 8,3 8,7 0,4 -4,7 -8,7zm-24 -76c-1,0 -3,-1 -5,-2 -10,-10 -23,-16 -38,-16 -4,0 -7,-3 -7,-8 0,-4 4,-7 8,-7 17,1 34,8 47,20 3,3 3,8 1,11 -2,1 -4,2 -6,2z"/>
    </g>
    <g>
     <path class="fil1" d="M281 453l0 0c-2,0 -4,-1 -6,-2l-38 -40c-3,-3 -3,-8 0,-11 3,-3 8,-2 11,1l33 35 32 -35c3,-3 8,-3 11,-1 3,3 3,8 0,11l-38 40c-2,1 -3,2 -5,2z"/>
    </g>
    <g>
     <path class="fil1" d="M319 413c-4,0 -8,-3 -8,-8l0 -32c0,-4 4,-8 8,-8 4,0 7,4 7,8l0 32c0,5 -3,8 -7,8z"/>
    </g>
    <g>
     <path class="fil1" d="M216 507c-4,0 -8,-3 -8,-8l0 -30c0,-5 4,-8 8,-8 4,0 7,3 7,8l0 30c0,5 -3,8 -7,8z"/>
    </g>
    <g>
     <path class="fil1" d="M343 507c-4,0 -7,-3 -7,-8l0 -30c0,-5 3,-8 7,-8 4,0 8,3 8,8l0 30c-1,5 -4,8 -8,8z"/>
    </g>
    <g>
     <path class="fil1" d="M242 413c-4,0 -7,-3 -7,-8l0 -29c0,-4 3,-8 7,-8 4,0 8,4 8,8l0 29c-1,5 -4,8 -8,8z"/>
    </g>
    <g>
     <path class="fil1" d="M280 406c-24,0 -51,-20 -56,-64 -1,-4 2,-8 6,-9 4,0 7,3 8,7 5,35 24,51 42,51 17,0 37,-16 41,-51 1,-5 5,-7 9,-7 4,1 6,5 6,9 -6,44 -33,64 -56,64z"/>
    </g>
    <g>
     <path class="fil1" d="M231 348c0,0 0,0 0,0 -6,0 -14,-4 -19,-19 -6,-21 -5,-58 11,-72 13,-10 36,-19 57,-21 12,-1 19,3 26,7 3,2 6,4 9,5 3,1 5,2 8,3 10,3 24,7 26,23 2,15 5,53 -7,68 -3,4 -7,6 -12,6 -2,0 -4,0 -6,-1 -1,-2 -2,-4 -2,-5 -1,-6 -2,-21 -8,-29 -7,-10 -38,-14 -55,-11 -12,2 -20,6 -20,40 0,2 -1,3 -2,5 -3,1 -4,1 -6,1zm40 -62c19,0 45,4 55,18 4,6 6,14 7,21 3,-12 3,-32 1,-49 -1,-6 -6,-8 -16,-12 -3,-1 -6,-2 -9,-3 -3,-1 -7,-3 -10,-5 -6,-4 -10,-6 -18,-5 -18,2 -38,9 -49,18 -8,6 -11,29 -8,49 1,1 1,2 1,3 4,-21 13,-31 31,-34 4,-1 9,-1 15,-1z"/>
    </g>
    <g>
     <path class="fil1" d="M674 507l-206 0c-4,0 -7,-3 -7,-8 0,-4 3,-7 7,-7l198 0 0 -21c0,-32 -25,-58 -56,-59 -4,0 -7,-3 -7,-7 0,-4 4,-7 8,-7 38,1 70,34 70,73l0 28c0,5 -3,8 -7,8zm-183 -78c-2,0 -4,-1 -5,-3 -3,-3 -3,-7 1,-10 13,-11 30,-18 47,-18 4,0 8,4 8,8 0,4 -4,7 -8,7 -14,0 -27,5 -38,14 -2,1 -3,2 -5,2z"/>
    </g>
    <g>
     <path class="fil1" d="M572 453c0,0 0,0 0,0 -2,0 -4,-1 -6,-2l-37 -41c-3,-3 -3,-7 0,-10 3,-3 8,-3 10,0l33 35 33 -35c3,-3 8,-3 11,0 2,3 2,7 0,10l-39 41c-1,1 -3,2 -5,2z"/>
    </g>
    <g>
     <path class="fil1" d="M611 413c-5,0 -8,-3 -8,-8l0 -32c0,-4 3,-8 8,-8 4,0 7,4 7,8l0 32c0,5 -4,8 -7,8z"/>
    </g>
    <g>
     <path class="fil1" d="M507 507c-4,0 -7,-3 -7,-8l0 -30c0,-5 3,-8 7,-8 5,0 8,3 8,8l0 30c0,5 -3,8 -8,8z"/>
    </g>
    <g>
     <path class="fil1" d="M634 507c-4,0 -7,-3 -7,-8l0 -30c0,-5 3,-8 7,-8 4,0 8,3 8,8l0 30c0,5 -4,8 -8,8z"/>
    </g>
    <g>
     <path class="fil1" d="M534 413c-4,0 -7,-3 -7,-8l0 -29c0,-4 3,-8 7,-8 4,0 8,4 8,8l0 29c0,5 -4,8 -8,8z"/>
    </g>
    <g>
     <path class="fil1" d="M571 406c0,0 0,0 0,0 -23,0 -50,-20 -55,-64 -1,-4 2,-8 6,-9 4,0 7,3 8,7 5,35 24,51 42,51 0,0 0,0 0,0 17,0 37,-16 41,-51 1,-5 5,-7 9,-7 4,1 6,5 6,9 -6,45 -33,64 -57,64z"/>
    </g>
    <g>
     <path class="fil1" d="M523 348c0,0 -1,0 -1,0 -5,0 -13,-4 -18,-20 -6,-20 -6,-57 11,-71 13,-10 35,-19 56,-21 13,-1 20,3 28,7 2,2 5,4 8,5 2,1 5,2 7,3 10,3 24,7 26,23 3,19 5,54 -7,68 -3,4 -7,6 -12,6 -2,0 -4,0 -5,-1 -2,-2 -3,-3 -3,-5 0,-6 -2,-21 -8,-30 -6,-10 -38,-14 -55,-11 -12,2 -20,7 -20,40 0,2 -1,4 -3,6 -1,1 -3,1 -4,1zm39 -62c19,0 46,4 55,18 4,6 7,14 9,21 2,-10 2,-29 0,-49 -1,-6 -5,-8 -16,-12 -3,-1 -6,-1 -9,-3 -4,-1 -7,-3 -10,-5 -6,-4 -10,-6 -18,-5 -19,2 -39,9 -49,18 -8,6 -11,28 -7,48 0,1 0,3 0,3 4,-20 13,-30 32,-33 2,-1 7,-1 13,-1z"/>
    </g>
    <g>
     <g>
      <path class="fil1" d="M537 614l-224 0c-4,0 -7,-3 -7,-7l0 -31c0,-44 35,-79 79,-79 4,0 7,3 7,7 0,5 -3,8 -7,8 -36,0 -65,29 -65,64l0 24 210 0 0 -24c0,-34 -28,-63 -62,-64 -4,0 -7,-4 -7,-8 0,-4 3,-7 7,-7 43,2 76,37 76,79l0 31c0,4 -2,7 -7,7z"/>
     </g>
     <g>
      <path class="fil1" d="M427 556c-2,0 -4,-1 -6,-3l-41 -44c-3,-3 -3,-7 0,-10 3,-3 8,-3 10,0l37 39 36 -39c3,-3 7,-3 10,0 3,3 3,7 1,10l-42 44c-2,2 -4,3 -5,3z"/>
     </g>
     <g>
      <path class="fil1" d="M468 511c-4,0 -7,-3 -7,-7l0 -35c0,-4 3,-7 7,-7 4,0 8,3 8,7l0 35c-1,4 -4,7 -8,7z"/>
     </g>
     <g>
      <path class="fil1" d="M356 614c-4,0 -8,-3 -8,-7l0 -34c0,-4 4,-7 8,-7 4,0 7,3 7,7l0 34c0,4 -3,7 -7,7z"/>
     </g>
     <g>
      <path class="fil1" d="M494 614c-4,0 -7,-3 -7,-7l0 -34c0,-4 3,-7 7,-7 5,0 8,3 8,7l0 34c0,4 -3,7 -8,7z"/>
     </g>
     <g>
      <path class="fil1" d="M385 511c-4,0 -7,-3 -7,-7l0 -32c0,-5 3,-8 7,-8 4,0 8,3 8,8l0 32c-1,4 -4,7 -8,7z"/>
     </g>
     <g>
      <path class="fil1" d="M425 505c-25,0 -54,-22 -60,-70 -1,-4 2,-7 6,-8 4,0 7,2 8,6 5,39 27,57 46,57 20,0 42,-18 47,-57 0,-4 4,-6 8,-6 4,0 7,4 6,8 -6,48 -34,70 -61,70z"/>
     </g>
     <g>
      <path class="fil1" d="M372 442c0,0 0,0 0,0 -6,-1 -14,-5 -19,-22 -7,-22 -7,-62 11,-77 14,-11 38,-20 62,-23 13,-2 21,3 29,8 3,2 6,4 9,5 3,1 5,2 8,2 11,4 26,9 28,25 2,13 7,57 -7,74 -4,4 -8,6 -13,7 -3,0 -4,-1 -6,-2 -2,-1 -2,-3 -2,-5 0,0 -2,-21 -9,-32 -7,-11 -43,-15 -60,-12 -14,2 -23,7 -24,44 0,2 -1,4 -2,5 -1,2 -3,3 -5,3zm45 -67c20,0 48,4 58,19 5,8 7,17 9,25 4,-12 4,-36 1,-57 -1,-7 -6,-9 -18,-12 -3,-1 -6,-2 -9,-4 -4,-1 -8,-3 -11,-6 -7,-4 -12,-7 -20,-6 -21,3 -43,11 -54,20 -11,9 -13,41 -7,60 3,-24 13,-35 34,-39 4,0 10,0 17,0z"/>
     </g>
    </g>
   </g>
  </g>
 </g>
</svg>
