<svg id="Layer_x0020_1" xmlns="http://www.w3.org/2000/svg" width="3000" height="3000" viewBox="0 0 3000 3000">
  <circle id="Ellipse_15" data-name="Ellipse 15" cx="1500" cy="1500" r="1500" fill="#000000"></circle>
  <path id="Path_162" data-name="Path 162" d="M1301.79,1788.17a88.311,88.311,0,0,1,62.44-150.83h271.54a88.141,88.141,0,0,1,62.44,25.94l1.65,1.81a88.334,88.334,0,0,1-64.09,149.03H1364.23a88.141,88.141,0,0,1-62.44-25.94Zm417.45-261.81a81.36,81.36,0,1,1,81.36,81.36A81.423,81.423,0,0,1,1719.24,1526.36Zm156.15-368.09ZM837.11,2265.46c113.79,5.82,159.66-51.47,165.5-59.47,63.2-72.7,74.96-198.71,76.13-213.33,13.67-66.8,96.26-76.61,107.56-77.64h627.41c11.3,1.03,93.89,10.84,107.56,77.64,1.17,14.63,12.93,140.63,76.13,213.33,5.87,8.05,52.25,66,167.55,59.37l.07.06a27.4,27.4,0,0,0,4.2-.57c17.67-2.81,143.28-26.71,162.36-141,17.86-62.23,25.55-157.26,19.78-263.35-7.28-133.89-35.86-286.74-92.3-414.93-58-131.73-145.61-238.16-270.21-274.49-35.09-10.23-72.88-14.82-113.46-12.8H1124.61l-.59.01c-40.36-1.98-77.94,2.61-112.87,12.79-124.6,36.33-212.2,142.76-270.2,274.49-56.44,128.19-85.02,281.04-92.3,414.93-5.77,106.09,1.93,201.13,19.78,263.35,20.3,121.61,161.23,140.88,164.37,141.3l-.01.06a27.65,27.65,0,0,0,4.33.26Zm221.38-622.7a26.669,26.669,0,0,1-26.67-26.67v-77.5h-77.5a26.67,26.67,0,0,1,0-53.34h77.5v-77.5a26.67,26.67,0,0,1,53.34,0v77.5h77.5a26.67,26.67,0,0,1,0,53.34h-77.5v77.5A26.669,26.669,0,0,1,1058.49,1642.76Zm194.72-311.99a26.669,26.669,0,0,1,26.67-26.67h94.63a26.67,26.67,0,1,1,0,53.34h-94.63A26.669,26.669,0,0,1,1253.21,1330.77Zm345.6,0a26.669,26.669,0,0,1,26.67-26.67h94.63a26.67,26.67,0,1,1,0,53.34h-94.63A26.669,26.669,0,0,1,1598.81,1330.77Zm345.01,420.19a81.36,81.36,0,1,1,81.36-81.36A81.461,81.461,0,0,1,1943.82,1750.96Zm143.23-143.23a81.36,81.36,0,1,1,81.36-81.36A81.461,81.461,0,0,1,2087.05,1607.73ZM1943.82,1464.5a81.36,81.36,0,1,1,81.36-81.36A81.125,81.125,0,0,1,1943.82,1464.5Z" fill="#F8DC25" fill-rule="evenodd"></path>
  <path id="Path_163" data-name="Path 163" d="M1453.75,1184.93a26.67,26.67,0,1,0,53.34,0V972.82a67.748,67.748,0,0,1,19.98-47.98h0c.4-.4.79-.82,1.16-1.24a67.838,67.838,0,0,1,46.81-18.75h0c51.52,0,58.9,36.23,66.4,73.12,1.56,7.69,3.14,15.43,5.02,23.19a121.582,121.582,0,0,0,117.83,92.94h0a120.958,120.958,0,0,0,85.69-35.61h0c.56-.56,1.08-1.13,1.57-1.72a120.783,120.783,0,0,0,34.03-83.97V760.68a26.67,26.67,0,0,0-53.34,0V972.8a67.838,67.838,0,0,1-18.75,46.81c-.42.37-.83.76-1.24,1.16h0a67.731,67.731,0,0,1-47.98,19.98h0a67.578,67.578,0,0,1-41.93-14.57,68.374,68.374,0,0,1-24.23-37.54c-1.66-6.87-3.13-14.1-4.6-21.31-11.89-58.45-23.57-115.84-118.49-115.84h0a120.783,120.783,0,0,0-83.97,34.03c-.59.5-1.16,1.02-1.72,1.57h0a120.94,120.94,0,0,0-35.61,85.69v212.11Z" fill="#F8DC25"></path>
  <g id="_2490326486416">
    <g id="Group_1" data-name="Group 1">
      <path id="Path_164" data-name="Path 164" d="M1991.86,1669.59a48.03,48.03,0,1,0-48.03,48.03,48.077,48.077,0,0,0,48.03-48.03Z" fill="#F8DC25" fill-rule="evenodd"></path>
    </g>
    <g id="Group_2" data-name="Group 2">
      <path id="Path_165" data-name="Path 165" d="M1991.86,1383.13a48.027,48.027,0,1,0-48.03,48.03,48.16,48.16,0,0,0,48.03-48.03Z" fill="#F8DC25" fill-rule="evenodd"></path>
    </g>
    <g id="Group_3" data-name="Group 3">
      <path id="Path_166" data-name="Path 166" d="M2087.06,1478.33a48.03,48.03,0,1,0,48.03,48.03A48.077,48.077,0,0,0,2087.06,1478.33Z" fill="#F8DC25" fill-rule="evenodd"></path>
    </g>
    <g id="Group_4" data-name="Group 4">
      <path id="Path_167" data-name="Path 167" d="M1800.6,1478.33a48.03,48.03,0,1,0,48.03,48.03A48.077,48.077,0,0,0,1800.6,1478.33Z" fill="#F8DC25" fill-rule="evenodd"></path>
    </g>
  </g>
</svg>